<?xml version="1.0" encoding="UTF-8"?>
<svg id="Layer_1" data-name="Layer 1" xmlns="http://www.w3.org/2000/svg" viewBox="0 0 505.62 225.06">
  <defs>
    <style>
      .cls-1 {
        fill: #fff;
        stroke-width: 0px;
      }
    </style>
  </defs>
  <path class="cls-1" d="m501.62,81.75c-.51-.76-.23-1.73-.56-2.53-.7-1.3-3.76-4.43-4.52-4.98-.59-.43-2.39-1.42-2.79-1.54-1.23-.45-2.07-1.56-3.47-1.58-.99-.06-1.99-.56-2.97-.55-.76.19-1.56.35-2.24.7-7.64,4.18-9.11,18.93-12.15,26.47-1.16,4.88-2.91,9.6-3.09,14.63-.86,2.71-1.45,5.54-1.27,8.4-.05,3.96-1.28,7.83-1.29,11.76-.68,1.6-.64,3.43-.69,5.15-.77,1.32-1.18-2.66-1.6-3.14-1.23-2.89-3.28-9.59-4.64-12.41-.93-1.56-1.57-3.21-1.77-5.04-.64-2.65-1.33-5.28-1.18-8.04-.01,0-.02,0-.03,0-.09-1.6.21-3.29-.74-4.72-.4-.88-1.48-4.64-1.93-5.58-2.44-3.75-5.42-7.01-9.35-9.22-5.93-3.89-13.7-2.94-19.76.04-5.76,3.73-11.45,8.29-14.95,14.27-3.56,6.62-6.51,13.58-8.12,20.94-.51,2.75-1.43,10.07-1.86,12.83-.2.57-.52,4.5-1.38,3.64-.27-.36-.27-.77-.16-1.19.38-1.45-.16-2.71-.81-3.95-.53-1.02-1.42-10.27-1.82-11.49-.19-.7-.26-1.45-.4-2.16-.16-.94-1.92-4.81-1.89-6.08.12-1.79-.68-3.41-.9-5.14-.32-2.77-.65-5.6-1.6-8.23-1.87-3.65-5.36-6.17-9.47-6.53-1.09-.11-2.19-.33-3.14.49-1.59.57-2.76,1.77-4.04,2.84-.49.37-.88.77-1.07,1.39-.28,1.74-2.14,2.39-2.68,3.93-.84,2.69-1.95,5.47-1.37,8.34-.23,2.6-1.14,5.11-1.73,7.66-.9,5.43-1.26,11-1.57,16.53-.03,4.02-.12,8.03-.63,12.03-.06,1-.47,1.98-.11,3-.25,2.63.38,5.31.77,7.93.03,1.96,1.44,3.45,1.49,5.38,0,.18.05.37.14.53,1.1,1.98,1.42,4.27,2.57,6.21.27.71.34,1.54.44,2.3.04,1.23,1.32,1.89,1.2,3.17.23,1.24,1.3,2.23,1.21,3.6.38,1.24,1.3,2.34,1.94,3.48,2.77,4.9,7.2,8.43,12.45,10.36.74.06,1.46.18,2.13.52,1.48.63,3.13.08,4.64.63,3.88,1.06,8.11.99,12.01.11,3.95-.94,7.01-3.66,9.89-6.37,2.81-2.38,4.18-7.77,5.78-10.5.58-1.6.92-3.27,1.73-4.82.04-1.08-.18-2.21.29-3.24.61-1.11-.08-2.36.53-3.47.55-1.04-.04-2.12-.72-2.98-1.18-1.19.28-2.41.53-3.64.15-.81.95-4.03,1.15-4.95.16-.75,2.23-5.74,5.24-5.98,1.26-.1,4.76,8.53,7.4,8.48.89-.02,1.83,1.72,2.57,2.18,5.02,2.53,4.32,4.99,5.82,9.46,1.22,2.1,1.64,4.49,3.2,6.46,1.34,1.68,2.41,5.33,3.77,7.37,1.49,2.23,3.75,3.82,6.35,4.46,4,.98,10.67,2.74,14.71,1.63,7.65-2.59,13.67-8.77,16.04-16.52.55-1.55.31-3.3.58-4.92.05-1.52.34-3.02.23-4.55.44-3.93.88-7.84.93-11.82.1-.45.18-.91.25-1.36.64-1.97,1.25-3.88,1.78-5.85-.25-.57-.31-.12-.76-.18-.19.62-.38,1.23-.57,1.84.09-1.2.17-2.4.29-3.6.2-.86.38-1.72.56-2.53,1.12-1.34.83-3.3,1.23-4.93l-.68,1.28-.19-.07c.02-.08.03-.16.05-.24.11-.23.14-.44.13-.65.11-.51.22-1.01.36-1.51.05.26.17.49.58.57l.99-1.45c-.2-1.69.88-2.94.46-4.56.13-.52.26-1.04.45-1.55.98-2.24,1.82-4.52,2.37-6.91.4-1.47.87-5.58.97-6.12.45-3.15.16-6.55,1.67-9.44.58-.94,1.21-1.86,1.14-3.05.23-.65.35-1.4.09-2.04-.27-.74-.1-1.39.22-1.99.45-.73.26-1.52.39-2.28.48-2.92.19-6.03-.38-8.93-.39-2.13-1.76-3.94-2.66-5.88Z"/>
  <polygon class="cls-1" points="242.77 121.01 242.78 121 242.77 121.01 242.77 121.01"/>
  <path class="cls-1" d="m352.74,145.94c-.69-.3-.87-.91-.92-1.58-.03-.37,0-.74-.01-1.11-.03-.68.19-1.42-.22-2.03-.45-.67.13-1.36-.14-2.02-.11-.25-.16-.53-.23-.8-.24-.94-.5-1.87-.72-2.81-.28-1.21-.47-2.44-.82-3.64-.56-1.94-1.16-3.87-1.85-5.77-.74-2.04-1.57-4.04-2.43-6.03-.59-1.35-1.25-2.68-2-3.96-.86-1.47-1.69-2.95-2.37-4.51-.55-1.24-1.27-2.34-2.49-3.06-.55-.33-1.05-.75-1.52-1.18-.45-.41-.85-.81-1.5-.93-.32-.06-.61-.39-.87-.64-1.32-1.29-2.6-2.63-3.94-3.9-1.03-.99-2.14-1.92-3.4-2.6-1.13-.62-2.32-1.14-3.49-1.67-1-.46-2.01-.9-3.04-1.29-.64-.25-1.31-.46-1.98-.59-1.67-.32-3.33-.74-5.06-.64-.23.01-.46-.05-.69-.07-.59-.06-1.19-.16-1.78-.18-1.06-.04-2.13-.02-3.19-.03-.32,0-.68.07-.96-.05-.88-.38-5.43.03-5.69.03-1.13,0-2.18.38-3.25.65-1.97.49-3.91,1.08-5.67,2.15-.67.41-1.37.76-2.04,1.18-.74.46-1.46.96-2.19,1.45-.88.59-1.71,1.26-2.63,1.77-1.7.93-3.32,1.99-4.96,3.01-.23.15-.48.29-.68.48-1.6,1.6-3.36,3.04-4.7,4.88-.24.33-.5.67-.8.95-.1.1-.36.12-.5.07-.13-.05-.25-.26-.27-.41-.02-.22.07-.45.07-.68,0-.12-.1-.27-.2-.34-.61-.42-1.38-.47-1.92-.02-.35.29-.66.45-1.12.33-.19-.05-.3.21-.18.39.15.24.33.48.65.41.4-.08.69,0,.96.34.15.19.45.28.7.39.5.21.53.34.15.76-.25.27-.55.52-.69.83-.21.47-.56.59-1,.55-.41-.03-.84-.05-1.22-.19-.9-.33-1.82-.29-2.74-.28-.91.01-1.86-.18-2.69.39-.11.07-.27.08-.4.08-.97-.03-1.92.1-2.88.29-.72.14-1.47-.04-2.2.21-.25.09-.42-.1-.54-.32-.13-.23-.13-.44.09-.61.11-.08.25-.14.34-.23.12-.12.25-.25.31-.41.06-.14-.27-.32-.55-.26-.26.06-.55.13-.76.29-.4.31-.74.67-.8,1.24-.05.46-.2.97-.69,1.13-.83.27-1.68.45-2.53.66-.08.02-.19,0-.26-.05-.06-.04-.13-.17-.1-.21.22-.36.5-.73.94-.74,1.05-.02,1.64-.69,2.26-1.4.41-.48.48-.98.38-1.54-.05-.28-.34-.52-.6-.44-.48.16-1.05.26-1.37.59-.5.53-1.15.76-1.7,1.16-.48.35-.88.42-1.36.04-.09-.07-.34.02-.48.1-.06.03-.05.26,0,.36.11.24.38.48.35.7-.03.23-.29.46-.5.62-.28.23-.59.43-.92.58-.68.29-1.36.57-2.13.56-.39,0-.8.13-.95.47-.38.88-1.25,1.17-1.92,1.69-.69.54-1.43,1.02-2.14,1.53-.35.25-.63.54-.63,1,.17-.05.35-.09.51-.16.75-.31,1.49-.62,2.23-.93-.76.86-1.66,1.55-2.61,2.18-.37.24-.57.16-.74-.23-.05-.1-.34-.2-.45-.15-.33.16-.64.36-.91.6-.35.3-.63.68-1.19.52-.11-.03-.33.14-.44.28-.26.32-.53.66-.46,1.11.07.47-.17.8-.46,1.1-.6.63-1.31,1.18-1.52,2.1-.88.89-1.45,2.02-2.2,3.01-.21.28-.43.47-.79.16-.07-.06-.4.03-.46.14-.3.52-.61,1.08-.43,1.69.29.98-.48,1.51-.85,2.21-.03.06-.16.09-.25.09-.7-.02-1.02.45-1.13,1.01-.18.98-.61,1.83-1.19,2.62-.13.18-.19.42-.28.62-.44.96-.67,2.02-1.43,2.82-.12.12-.2.33-.21.5-.03.77-.23,1.56.33,2.26.15.19.25.56.17.77-.34.9-.22,1.82-.21,2.74,0,.51-.02,1-.35,1.44-.34.45-.34.95.02,1.4.46.59.43,1.21.05,1.8-.3.46-.35.94-.33,1.45.06,1.33-.17,2.68.26,3.98-.06,1.65.21,3.32-.22,4.96-.17.63-.03.72.77.8.09,0,.16.09.25.11.42.09.65-.05.65-.41,0-.18-.08-.36-.09-.54,0-.07.09-.14.14-.21.06.06.17.11.17.17.1,1.1-.09,2.22.27,3.3.05.15-.04.37-.13.52-.08.13-.26.2-.39.3-.06-.11-.16-.23-.16-.34,0-.32.06-.64.08-.96.01-.22-.12-.36-.33-.33-.32.05-.64.12-.94.23-.16.06-.33.2-.4.35-.13.29.16.35.33.49.16.13.24.35.34.55.21.41.3.96.62,1.2.59.44.68,1,.86,1.63.15.53-.02,1,.03,1.5.08.87.1,1.74.15,2.62.02.4-.13.56-.54.6-.27.03-.36.42-.23.67.1.19.27.22.46.14.08-.04.16-.11.24-.14.28-.09.47.02.51.27.03.23.06.46.06.69-.02.97-.01,1.93.47,2.83.14.27.08.63.15.95.15.67.27,1.36.5,2,.27.73.74,1.4.96,2.14.23.77.75,1.48.6,2.36-.02.11.1.25.17.37.27.48.53.97.82,1.44.78,1.26,1.42,2.58,1.76,4.04.11.47.42.81.76,1.13.6.58,1.15,1.18,1.63,1.87.44.63.91,1.26,1.6,1.69.34.21.66.56.81.92.62,1.58,1.64,2.86,2.82,4.06.52.53.97,1.11,1.17,1.84h0c.91.17,1.64.53,2,1.47.19.51.65.77,1.21.79.88.02,1.48.53,1.92,1.2.46.7,1.06,1.12,1.86,1.34.48.13.95.33,1.34.69.47.44,1,.8,1.5,1.21.64.52,1.31,1.02,1.9,1.6.54.53,1.11.95,1.79,1.27.88.41,1.73.84,2.47,1.51.46.42,1.13.6,1.71.88.21.1.45.12.65.22,1.74.85,3.48,1.68,5.36,2.2.48.13.94.38,1.38.63.49.28.98.48,1.53.61,1.61.37,3.19.87,4.83,1.13,1.27.19,2.52.52,3.82.51.18,0,.38-.01.55.05.85.32,1.73.23,2.61.24.51,0,1.01,0,1.49.24.65.32,1.35.32,2.04.18.42-.09.81-.06,1.23-.01,1.01.13,2.03.21,3.03-.08.94-.28,1.9-.33,2.88-.32.83,0,1.68.05,2.48-.11.69-.14,1.37-.18,2.06-.19.92-.02,1.85.07,2.71-.41.15-.08,1-.29,1.69-.39.46-.07.85-.09.89.01.26.6.18,1.2-.38,1.38-.05.02-.11.03-.16.04-.02,0-.04,0-.05,0-.73.11-3.13.32-3.68.44-.63.14-1.28.26-1.86.52-.77.35-1.53.63-2.39.57-.18-.01-.38.03-.53.12-.14.08-.3.25-.31.39,0,.11.2.29.34.33.26.06.56.09.82.05.82-.12,1.63-.28,2.45-.42,1.91-.33,3.76-.92,5.68-1.15.4-.05.78-.24,1.17-.38.94-.36,1.82-.88,2.87-.86.14,0,.28-.01.41-.05,1.45-.46,2.9-.92,4.35-1.38.19-.06.31-.25.22-.43-.07-.14-.26-.33-.38-.32-.41.02-.81.12-1.22.18-.08.01-.17-.04-.26-.06.04-.11.04-.28.12-.34.54-.4,1.2-.46,1.82-.61.75-.18,1.35-.58,1.93-1.03.08-.06.09-.24.09-.36,0-.05-.14-.12-.22-.13-.09-.02-.2.04-.27.01-.11-.05-.22-.13-.27-.23-.03-.05.02-.18.07-.25.42-.52,1.03-.55,1.62-.62.07,0,.17.08.22.15.16.21.26.56.46.61.21.06.49-.23.75-.25,1-.08,1.83-.61,2.72-.98.51-.21.96-.56,1.48-.74.59-.21.85-.68,1.12-1.16.11-.19.14-.44.19-.66.14-.65.57-1.02,1.15-1.29.43-.2.86-.31,1.33-.32.31,0,.72,0,.93-.18.74-.65,1.83-.65,2.47-1.44,1.34-.67,2.39-1.72,3.48-2.7.92-.84,1.77-1.75,2.76-2.52.65-.5,1.34-.97,1.81-1.7.18-.28.6-.41.9-.61,0,0,0,0-.01.01h.01c-.08.15-.13.34-.24.47-.56.67-1.13,1.33-1.71,1.98-.4.44-.8.88-1.23,1.29-.76.73-1.56,1.43-2.31,2.18-.18.18-.23.48-.34.72-.52-.05-1.01-.02-1.4.39-.28.3-.57.59-.83.91-.06.08-.07.29,0,.36.06.08.26.12.36.08.83-.36,1.42-.98,1.89-1.74.29-.11.64-.16.87-.35.63-.52,1.23-1.09,1.81-1.66.98-.96,1.95-1.94,2.92-2.91.58-.58,1.19-1.14,1.61-1.86.21-.37.73-.58.56-1.13-.37.14-.74.29-1.11.43h.01s0,0-.01,0h0c-.09.09-.19.19-.28.28.09-.09.19-.19.28-.28.37-.61.82-1.08,1.61-1.17.27-.03.57-.31.76-.55.68-.87,1.31-1.79,1.73-2.82.49-1.19,1.23-2.26,1.81-3.4.24-.48.67-.87,1-1.31.27-.37.59-.72.76-1.14.31-.78.72-1.49,1.18-2.19,1.2-1.79,2.02-3.71,2.06-5.92,0-.3.14-.62.27-.91.23-.49.25-.96.01-1.46-.45-.92-.45-1.84.02-2.77.21-.41.32-.86.46-1.3.42-1.31.39-2.74,1.04-3.99.04-.08.03-.18.04-.27.09-.59.18-1.18.28-1.77.1-.64.27-1.27.31-1.91.05-.83.15-1.65.27-2.47.12-.86.07-1.74.51-2.54.08-.15.03-.36.04-.55.02-.32.03-.65.08-.97.28-1.77.58-3.55.52-5.35-.04-1.17.23-2.28.57-3.38.08-.26.19-.53.19-.8.02-1.85.02-3.7.02-5.54,0-.34-.11-.63-.46-.78Zm-44.24,15.95c-.22.78-.35,1.59-.54,2.38-.57,2.35-1.46,4.54-2.75,6.6-.64,1.02-1.43,1.91-2.04,2.95-.16.27-.4.5-.63.73-.65.66-1.32,1.3-1.95,1.97-1.16,1.23-2.55,2.1-4.09,2.77-.63.28-1.25.58-1.88.87-.08.04-.17.1-.25.1-1.11.02-2,.66-2.96,1.09-.48.22-.93.35-1.45.35-1.39-.02-2.77,0-4.16,0v.02c-1.11,0-2.22.02-3.33,0-2.5-.04-4.84-.61-6.96-1.99-.69-.45-1.5-.69-2.14-1.25-.76-.66-1.61-1.24-2.35-1.93-.57-.53-1.03-1.17-1.53-1.77-.5-.6-.97-1.23-1.5-1.81-.89-.99-1.78-2-2.74-2.93-.76-.73-1.6-1.4-2.45-2.01-.68-.49-1.33-.99-1.92-1.58-.42-.42-.89-.79-1.35-1.19-.14-.12-.31-.22-.42-.36-1.08-1.37-2.29-2.66-2.95-4.32-.17-.43-.45-.66-.86-.83-.38-.16-.76-.36-1.07-.62-.31-.26-.64-.57-.79-.93-.39-.93-.93-1.82-.97-2.87,0-.18-.04-.38-.14-.53-.71-1.15-.83-2.52-1.43-3.72-.64-1.29-.77-2.63-.41-4.04.11-.44.15-.93.06-1.37-.26-1.25.04-2.33.7-3.4.53-.86.99-1.76,1.61-2.58.3-.4.48-.89.74-1.32.23-.38.34-.77.17-1.18-.2-.49,0-.85.24-1.28.44-.8,1.05-1.37,1.78-1.88.63-.45,1.21-1,1.74-1.57.96-1.03,2.05-1.85,3.32-2.44.46-.21.88-.51,1.31-.77.52-.31.94-.7,1.29-1.22.77-1.14,1.89-1.71,3.29-1.69.51,0,1.02-.03,1.52,0,.87.06,1.65-.14,2.29-.76.52-.5,1.08-.44,1.65-.13.43.23.77.55.75,1.07-.03.73.29,1.33.59,1.96.22.45.37.94.54,1.41.88,2.43,2.29,4.41,4.75,5.48.34.15.67.31,1.02.42,1.35.44,2.48,1.19,3.41,2.26.59.68,1.34,1.07,2.22,1.31,1.55.43,3.08.96,4.62,1.42.39.12.82.22,1.22.17.91-.12,1.81-.33,2.71-.51.18-.04.35-.19.52-.19,1.34,0,2.64-.58,3.98-.35,1.29.22,2.53.37,3.82,0,.46-.13.89.08,1.25.44.59.58,1.17,1.15,1.48,1.96.33.86.8,1.66,1.19,2.49.33.71.57,1.44.64,2.25.06.67.36,1.32.53,1.99.3,1.16.53,2.33.53,3.54,0,1.48.22,2.93.63,4.36.1.35.12.73.13,1.09.02.78,0,1.57.02,2.36,0,.51-.12.99-.26,1.48Zm28.62,39.84s0,0,0,0h-.01s0,0,0,0Z"/>
  <path class="cls-1" d="m226.29,45.95c.9-2.53.32-4.79.28-7.5,0-3.31-1.71-7.55-3.64-10.24-1.68-1.29-3.14-2.89-4.96-3.94-.54-.36-.57-.64-1.45-1.03-8.33-3.74-16.67,6.87-19.67,14.69-3.46,7.98-4.6,15.73-6.84,24.17.05,2.81-1.44,5.32-1.63,8.06.08.83-.1,1.56-.53,2.24-1.74,3.95-1,8.57-1.87,12.76-.36,2.4-1.28,4.87-.91,7.28-.23,1.25-1.11,2.42-1.07,3.78-.89,8.06-1.1,16.1-.12,23.98-.17,9.77.6,19.94-.78,29.87-2.88,14.22-8.16,28.32-6.99,43.08-.08,4.43,1.39,9.81,5.1,12.58,4.08,2.63,8.73,5.95,13.7,3.83,6.62-1.9,10.79-8.96,12.95-15.07.79-2.44.74-5.06,1.27-7.59.3-1.42,1.49-2.67,1.22-4.19.24-.98.91-1.91.71-3.01-.14-1.25,1.13-2.15.67-3.44.63-3.85.8-7.68.27-11.62-.58-3.16.18-6.38-.81-9.46l.61-1.24c.15.65-.05,1.47.15,2.27.04-.06.08-.13.11-.19.06-.49.12-.97.18-1.46-.07-.61-.24-1.26-.27-1.95-.03.32-.3.63-.4.38.06.75-.38,1.36-.44,2.01-.09-.27-.19-.53-.32-.8-.07-.28-.13-.56-.18-.85-.05-.77,0-1.54.19-2.21l-.19.03-.28-1.73s-.05,0-.08-.01c0-.21,0-.42,0-.63.07-.15.12-.31.03-.44.04-.33,0-.71-.02-1.08,0-.18,0-.37.01-.55.03-.24.1-.44.28-.56.52.22-.05.85.33,1.2l.26-.05c.16-.55-.29-1.47.38-1.58-.64-.25.33-1.68-.84-1-.19.03-.23.3-.32.48.03-.36,0-.71-.04-1.05,0-1.05-.02-2.1-.11-3.14,0-.02.02-.05.02-.07.56.89,1.28-.75,1.89-.7.09-.22.33-.37.22-.67-.24.25-.43.55-.77.5-.66-.46-.06-1.14-.22-1.84-.11.07-.22.4-.36.17.08.35.16,1.07-.19,1.29h-.64c.13-1.16-.43-1.74.13-2.78-.87-.81.39-1.73-.21-2.51.02-.25.01-.49-.01-.74.25-.64.59-1.24.06-2l.25-.15c-.25-.22-.23-.69-.32-1.09l.16-.24c.2.07.12.4.18.59.44-1.12.42-2.58.44-4l-.41-.29c.45-.08.52-1.03.64-1.63-.5-1.37.66-2.73.4-4.31l-.3-.1s0-.02,0-.03c.34-.3.28-.55.17-.82.1-.58.17-1.17.19-1.77l.06-.08s-.02-.03-.03-.05c.13-.44.21-.91.27-1.41.08-.2.14-.41.11-.65.02-.28.04-.57.06-.85.15-1.3.39-2.57,1.21-3.43.18.33.6.42.45.84.44-.36.12-.84.02-1.25.92-.74.73-2.11,1.27-3.09.55-.88.06-1.75.13-2.69.54-1.03.37-1.97.45-3.06.58-4.07,1.13-8.05,2.93-11.81.36-2.46.52-4.94.86-7.37-.23-2.42.85-4.75.78-7.07-.8-2.31,1.05-4.21.97-6.44.02-.88-.04-1.77.38-2.57,1.34-2.53,2.23-5.49,2.42-8.36.2-1.94,1.52-3.64.9-5.74-.14-2.3,1.81-4.5,1.47-6.76Z"/>
  <path class="cls-1" d="m288.92,224.16c-.18-.06-.35-.13-.53-.15-.5-.06-1.02-.06-1.51-.17-.38-.09-.7-.13-1.05.1-.36.24-.87.35-1.19.14-.67-.44-1.38-.44-2.12-.49-.38-.03-.47-.24-.31-.67.19-.52.06-.81-.41-.91-.13-.03-.27-.05-.41-.05-.88,0-1.75,0-2.6-.25-.26-.07-.53-.03-.7.29-.06.13-.28.19-.44.24-.22.07-.47.06-.66.16-.14.07-.28.27-.28.41,0,.14.17.38.29.4.74.09,1.38.47,2.06.71.52.17,1.07.29,1.61.33.6.03,1.19.09,1.76.29.53.19,1.07.28,1.62.09.38-.13.69-.04,1.04.15.3.17.69.22,1.04.27.36.04.74,0,1.1,0,0,0,0-.02,0-.02.51,0,1.01.01,1.52,0,.24,0,.47-.1.52-.37.05-.28-.14-.41-.37-.49Z"/>
  <path class="cls-1" d="m228.98,179.9c.08-.07.15-.28.1-.36-.6-1.12-.55-2.4-.93-3.57-.08-.24,0-.54.04-.81.13-.81.29-1.62.41-2.43.03-.22-.02-.51-.28-.56-.2-.03-.46.03-.62.15-.32.22-.47.52-.42.95.08.68.11,1.36.18,2.34,0,.02-.06.34-.15.64-.09.31-.28.23-.52.12-.21-.1-.37.07-.33.28.08.45.15.91.32,1.33.17.42.4.84.7,1.16.31.32.74.53,1.13.76.09.06.29.05.37-.01Z"/>
  <path class="cls-1" d="m233.74,191.1c-.65-1.32-1.27-2.65-1.93-3.96-.16-.33-.42-.63-.86-.57-.34.05-.51-.12-.65-.39-.24-.45-.47-.89-.73-1.33-.03-.06-.16-.06-.27-.09-.04.12-.12.24-.13.36-.09,1.04.52,1.84.99,2.67.23.4.45.92,1.13.83.16-.02.41.33.55.56.23.39.34.87.62,1.23.67.88,1.16,1.86,1.77,2.77.22.34.54.62.83.91.04.04.16,0,.24.01,0-.08.03-.19,0-.24-.63-.86-1.08-1.81-1.54-2.76Z"/>
  <path class="cls-1" d="m260.66,113.96c.22.17.66.05.65-.23-.03-.77.51-1.24.84-1.83.32-.58.75-.9,1.43-.86.43.03.82-.08,1.13-.4.05-.05.04-.16.06-.23-.07-.07-.12-.18-.18-.19-1.11-.19-2.19-.02-3.26.3-.16.05-.34.2-.4.35-.18.49-.47.88-.79,1.28-.11.13-.19.34-.18.5.03.52.27.96.69,1.29Z"/>
  <path class="cls-1" d="m319.16,216.08c-.85.34-1.74.63-2.53,1.08-.69.39-1.39.73-2.15.89-.75.16-1.2.62-1.62,1.19-.05.06-.05.19-.02.26.03.07.13.1.26.19.52-.18,1.09-.35,1.64-.56.51-.2.98-.5,1.5-.67,1.06-.35,2-.92,2.92-1.53.11-.07.25-.16.3-.28.06-.15.08-.34.06-.5,0-.04-.26-.11-.36-.07Z"/>
  <path class="cls-1" d="m242.04,202.25c-.32-.33-.65-.65-1-.95-.04-.04-.19-.03-.24.02-.04.04,0,.16,0,.24.01,0,.03,0,.04,0-.01.12-.02.23-.04.35-.13-.02-.32,0-.37-.08-.24-.38-.82-.62-.44-1.28.2-.35-.3-.9-.72-.94-.22-.02-.46.03-.66-.05-.26-.1-.5-.29-.71.04-.15.24.02.44.14.63.03.04.06.07.08.11.73,1.25,1.97,2.04,2.89,3.12.22.25.56.31.89.14.27-.14.41-.61.29-.99-.04-.13-.09-.27-.18-.36Z"/>
  <path class="cls-1" d="m263.92,112.26c-.26.3-.31.28-.65-.1-.2-.21-.39-.25-.58-.04-.12.13-.22.3-.3.46-.12.25.03.52.28.49,1.14-.13,2.28-.26,3.42-.4.18-.02.35-.1.52-.18.42-.18.83-.37,1.27-.56-.01-.31-.02-.62-.05-.94-.03-.38-.33-.54-.68-.36-.2.1-.44.2-.57.37-.31.4-.71.5-1.18.6-.52.11-1.09.18-1.49.65Z"/>
  <path class="cls-1" d="m242.86,203.41c-.42.7-.37,1.4.15,2.05.76.94,1.75,1.63,2.74,2.3.08.05.25-.03.37-.05-.03-.12-.02-.28-.09-.36-.3-.35-.62-.68-.95-1.01-.28-.28-.32-.52,0-.82.16-.15.06-.32-.07-.48-.29-.35-.57-.72-.85-1.09h0c-.4-.03-.65-.32-.95-.54-.08-.06-.32-.05-.35,0Zm1.05,1.49c.05.05.1.11.14.16-.03.02-.06.04-.09.06-.05-.06-.1-.11-.15-.17.03-.02.09-.06.1-.05Z"/>
  <path class="cls-1" d="m270.24,220.61c-.97-.06-1.87-.37-2.77-.7-.46-.17-.97-.24-1.47-.37-.1.11-.21.19-.27.3-.03.06.03.16.06.24.02.04.06.07.09.1,1.33,1.02,2.96,1.1,4.51,1.42.09.02.3-.21.34-.35.04-.15-.04-.35-.13-.49-.06-.09-.23-.15-.36-.16Z"/>
  <path class="cls-1" d="m230.06,184.29c.04.05.2.09.24.06.1-.07.17-.19.22-.3.03-.08.02-.19,0-.27-.19-.51-.46-.98-.45-1.56,0-.15-.28-.38-.47-.43-.43-.13-.89-.18-1.45-.28-.09.11-.3.26-.33.44-.12.68.16,1.24.81,1.39.64.14,1.08.44,1.43.96Z"/>
  <path class="cls-1" d="m268.87,112.53c.05.42.31.63.73.69.14.02.27.02.43.02.12-.01.26-.02.39-.04.09-.01.18-.04.26-.09.07-.05.18-.13.17-.19,0-.12-.05-.32-.12-.34-.98-.24-1.09-.97-1.05-1.8,0-.18,0-.37-.08-.54-.04-.1-.24-.23-.3-.2-.29.12-.58.26-.81.46-.1.09-.16.41-.09.49.41.44.42.98.48,1.53Z"/>
  <path class="cls-1" d="m261.33,217.15c-.81-.32-1.64-.59-2.46-.88-.08-.03-.18-.01-.31-.02-.04.1-.14.24-.1.33.06.16.17.33.31.44.84.69,1.85,1,2.88,1.24.09.02.27-.09.32-.19.05-.1.03-.29-.04-.37-.17-.21-.36-.45-.6-.55Z"/>
  <path class="cls-1" d="m226.98,173.74c-.15-.59-.36-1.48-.58-2.36-.02-.08-.09-.16-.14-.23-.12-.18-.43-.21-.62-.08-.28.21-.4.52-.22.84.37.7.67,1.4.69,2.21,0,.28.07.56.41.63.27.06.46-.25.46-1.01Z"/>
  <path class="cls-1" d="m275.67,221.27c-.55.22-1.07.51-1.59.8-.19.11-.13.48.09.57.16.07.36.13.52.1.6-.13,1.07-.49,1.49-.93.05-.05.02-.17.05-.35-.18-.06-.42-.25-.56-.19Z"/>
  <path class="cls-1" d="m227.68,171.57c.17-.41.33-.82.44-1.1-.06-.39-.05-.63-.13-.83-.06-.13-.25-.23-.4-.27-.08-.02-.26.12-.29.22-.22.68-.04,1.34.17,1.99,0,.02.21.02.22,0Z"/>
  <path class="cls-1" d="m256.48,214.58c-.2-.12-.62.14-.73.46-.1.28.11.41.33.49.33.12.68.22,1.05.34.09-.12.23-.24.21-.32-.11-.47-.46-.75-.86-.98Z"/>
  <path class="cls-1" d="m236.79,196.08s-.1.01-.12.04c-.05.07-.13.19-.1.23.29.51.59,1.02.91,1.52.04.07.16.13.23.12.11-.02.22-.11.3-.15-.02-.56-.77-1.63-1.21-1.76Z"/>
  <path class="cls-1" d="m247.87,209.05s-.09.01-.13.02c-.04.08-.12.16-.11.23.08.59.51.97,1.12.99.11,0,.27-.11.32-.21.05-.1.05-.33-.02-.37-.38-.24-.78-.45-1.18-.66Z"/>
  <path class="cls-1" d="m247.8,207.69c-.09-.23-.26-.45-.46-.6-.2-.15-.47-.22-.7-.32-.07.13-.17.24-.14.28.14.21.28.45.47.61.29.23.89.19.83.04Z"/>
  <path class="cls-1" d="m250.11,209.41c-.11,0-.26.13-.29.24-.1.29.18.62.55.62.14,0,.29-.14.39-.2.01-.41-.28-.68-.65-.66Z"/>
  <path class="cls-1" d="m246.38,116.94c.26-.17.48-.38.7-.56-.04-.13-.04-.19-.07-.21-.07-.05-.19-.13-.24-.1-.24.12-.48.25-.68.42-.14.11-.26.31-.07.47.07.06.27.04.36-.02Z"/>
  <path class="cls-1" d="m322.07,214.47c-.22.16-.42.33-.62.51-.02.02-.02.09,0,.13.02.04.06.06.1.1.35,0,.61-.15.77-.46.03-.07.02-.19-.02-.25-.04-.05-.18-.07-.23-.04Z"/>
  <path class="cls-1" d="m325.42,212.63c-.3-.08-.51.05-.65.31-.03.06-.02.21.02.23.11.05.25.1.35.06.18-.08.33-.22.5-.34-.11-.14-.16-.24-.22-.25Z"/>
  <path class="cls-1" d="m229.23,177.14c.07-.15.17-.3.19-.46,0-.1-.1-.27-.19-.3-.09-.02-.24.07-.24.12-.02.17-.01.36.02.53.01.05.14.07.22.11Z"/>
  <path class="cls-1" d="m259.22,111.35c.12-.11.23-.22.34-.33-.09-.08-.16-.22-.26-.23-.25-.03-.55.22-.47.35.06.09.21.12.39.22Z"/>
  <path class="cls-1" d="m327.13,211.7c.2-.08.41-.14.58-.26.07-.05.06-.23.09-.35-.11.01-.28-.02-.33.05-.14.17-.23.37-.34.56Z"/>
  <path class="cls-1" d="m248.33,208.21c-.06.05-.13.09-.18.14,0,0,.04.07.05.11.06-.05.13-.09.19-.15,0,0-.04-.07-.06-.1Z"/>
  <path class="cls-1" d="m253.41,211.98c.03.07.08.12.12.19.05-.05.09-.09.14-.14-.06-.05-.13-.09-.19-.13,0,0-.08.07-.07.09Z"/>
  <path class="cls-1" d="m252.98,212.98s.06.03.09.04c.01-.03.02-.06.03-.09-.03-.01-.06-.02-.1-.04-.01.03-.04.07-.03.08Z"/>
  <path class="cls-1" d="m242.72,121.1s.04-.06.06-.08h0s-.03.05-.05.08Z"/>
  <path class="cls-1" d="m327.07,211.8s.04-.06.06-.09c0,0,0,0,0-.01,0,0,0,0-.01,0-.02.03-.03.06-.05.09Z"/>
  <path class="cls-1" d="m495.18,143.51c-.42.31-.53,1.04-.13,1.38.61-.18.82-1.17.13-1.38Z"/>
  <path class="cls-1" d="m495.51,142.06c1.1-1.34.68-3.92,1.55-5.31l-.43-.43c-.35.94-.06,1.45-.67,2,.18,1.17-.55,2.93-.45,3.74Z"/>
  <path class="cls-1" d="m499.89,125.32c-.19,1.43-.21,2.95-.95,4.06-.21-.38-.05-.79-.08-1.16-.67,1.1-.5,2.18-.75,3.27.1,1.11-1.07,1.36-.52,2.53.89,0,.68-1.58,1.04-2.33,1.23-1.82,1.07-4.36,1.36-6.33,0,0,0-.01,0-.02-.03,0-.06-.01-.09-.02Z"/>
  <path class="cls-1" d="m499.39,125.6c-.27.37-.11.73-.13,1.08.27-.37.11-.73.13-1.08Z"/>
  <path class="cls-1" d="m503,107.45c-.5,1.58-.98,2.98-.8,4.67-.94,1.26-.44,2.93-.81,4.4.11,2.14-.36,4.1-.56,6.22.5-.79.33-1.34.58-2.26.87-3.12.61-6.43,1.31-9.59-.18-1.22.5-2.24.28-3.44Z"/>
  <path class="cls-1" d="m503.76,83.56l.76,2.62c.13.4.34.99,1.11,1.1-.58-.92-.16-1.81-.74-2.73-.91.01-.98-.66-1.13-1Z"/>
  <path class="cls-1" d="m504.3,83.39l-.05.24c.1.05.14.12.25.14.15-.15-.06-.25-.2-.38Z"/>
  <path class="cls-1" d="m503.49,82.26l.75.94c.11-1-1.98-1.95-1.17-2.58l-.38-.05c.22-.46-.33-.78-1.02-.98.42.9.98,1.92,1.69,2.75l.13-.09Z"/>
  <g>
    <path class="cls-1" d="m178.91,54.99c.42-1.01.12-2.06.22-3.13,0-1.31-.58-2.59-.72-3.91-1.41-5.87-7.08-8.65-11.02-12.69-5.06-4.03-11.4-6.05-17.46-8.01-5.2-2.39-10.76-3.51-16.38-4.29-7.11-2.63-9.89-3.28-17.31-4.75-3.6-.6-6.78-2.67-10.34-3.47-7.12-1.96-14.45-3.04-21.65-4.5-4.34-.37-8.71-.82-12.97-1.69-3.21-.7-21.22-4.29-23.24-4.66-.35-.11-12.34-3.43-14.45-3.53-2.55-.55-5.11-.45-7.64.22-2.89.92-5.43.8-8.21,2-3.52,1.4-6.99,2.96-9.97,5.33C1.62,13.57-1.69,23.27.88,31.36c.93,2.13,1.55,3.13,3.12,5.04.49.71,1.45,1.5,2.2,2.1.44.38,5.31,3.27,7.94,4.79,2.96,1.88,6.59,1.99,9.95,2.73.77.14,1.55.25,2.33.27,1.65.05,1.48-.1,2.06,1.61.56,2.49,2,6.22,2.36,8.63-.06,1.79,1.15,3.17,1.43,4.86.33,1.54.48,3.09.55,4.67.64,6.29-.64,12.67-.7,18.96.31,1.45-.02,2.93.32,4.39.06.31-.09.66-.38.77-.45.11-.9.06-1.36-.09-2.04-.73-4.64-.51-6.76-.3-1.9.1-7.54,2.25-9.07,3.57-3.21,2.78-4.29,6.72-3.98,11.04-.1,2.89-.05,5.31,1.02,8.03.43,1.08.93,1.94,1.48,2.66.23.55.48,1.1.74,1.64.02.05.04.1.06.15.34.28.67.57,1.1.78-.28.75,1.83.64,1.92,1.41.3.06.6.13.89.22.14.13.28.26.41.4,3,2.86,6.34,2.53,10.08,4.36,2.7,1.19,6.57,2.66,7.03,5.95.1.66.49,1.32.55,1.99,1.59,7.26,5.78,16.89,7.25,24.17.31,10.46-.28,21.27,3.22,31.17.03.02,1.5,4.5,1.7,5.3.95,3.82,3.33,7.21,5.34,10.54,2.46,4.21,4.83,5.8,9.33,7.52,5.04,1.64,11.02.81,11.31-5.58,0-.23,0-.5.11-.67.61-.94.46-2.05.44-3.07-.24-1.56.81-2.79.9-4.27-.09-1.09.11-2.26-.3-3.29-1.04-1.81-.33-3.93-.92-5.81-.42-.77-.33-1.61-.51-2.4-.66-1.09-.83-2.33-1.14-3.53-.8-2.48-2.13-4.78-2.7-7.34-.11-2.93-2.01-5.52-1.63-8.46-.23-1.6-.89-3.22-1.34-4.77-.36-4.01.31-8.11.27-12.12.49-2.67-.28-9.89-.01-12.57.01-.4.24-.63.63-.54.17.02.34.01.52.01.51.14,1.04.31,1.54.44.46-.21.94-.44,1.38-.65.04-.02-.13-.07-.09-.07.33,0,.72.04,1.07.06-.23.28-.48.5-.79.67,1.03.27,1.87.26,2.81-.28-.35-.07-.68-.18-1-.34.4.02.8.04,1.2.06-.53-.27-1.06-.42-1.65-.52,0,0,0-.02,0-.04.16-.03.33-.07.49-.1.01.05,0,.1-.06.16.71.04,1.42.07,2.13.1,0,.05,0,.11.01.16.49-.01.98-.03,1.48-.04.77.24,1.55.42,1.92.32.98-.24,1.87-.31,2.71-.29-1.22.18-2.73.38-3.53.46-1.02.1-.83-.01-1.61.04.07.02.1.1.1.13,0,.03-.27.02-.26.03.02.01.23,0,.29.02.98.94,2,1.03,3.3.88-.34-.11-.67-.23-1-.35.2-.11.43-.25.5-.45.74-.15.46.16,1.44-.1.45-.12,1.14-.33,1.88-.56,2.17.27,4.12,1.06,6.65,1.15.43.21.83.41,1.16.57-.06.23-.21.32-.43.33.15.14.4.28.52.42.07.07-.23.24-.15.29.14.08.31.34.55.26s-.15-.62.3-.66c-.22-.22-.45-.4-.66-.62.16.02.32.03.47.05.05-.2.11-.39.16-.59.6.03,1.21.05,1.81-.02.63.2,1.26.39,1.89.59-.52.13-.99.41-1.53.48-.54.07-1.12-.1-1.63.06-.04.01-.02.14.03.14.33.03.74-.06,1.09,0-.15.05-.32.1-.47.15.18-.04.48-.09.64-.06.16.03.11.15.23.16.12,0,.07-.17.14-.18.87-.12,1.75-.2,2.62-.3.58-1.18,1.1-.18,2.05-.5.06-.02.03-.26-.06-.55,1.79.32,3.58.8,5.38.78,3.44-.32,6.7-.52,10.01-1.41.77-.05,1.53-.1,2.3-.16-.23.21-.49.43-.7.63,2.18-.54,5.14-1.23,7.17-1.48,1.63-.2,1.55.08,2.57.81.37.26.22-.06.32-.25.74-.16,1.5-.32,2.25-.51.08.12.17.24.26.36,1.67-.14,3.33-.34,4.97-.7.07,0,.14,0,.21,0,.04.07.07.13.11.2.14-.05.35-.12.61-.22,1.22-.03,2.18-.06,2.72-.11-1.65.49-3.33.89-5.08,1.12-.4.23-.79.47-1.2.69.78.24,1.43-.28,2.22-.17-.08.18-.21.23-.38.31.47.11.82.03,1.23-.22-.27,0-.53.01-.8,0,.48-.46,1-.39,1.62-.47.04.08.08.16.13.24,1.93-.52,3.75-.63,5.34-1.95.48-.19.85-.49,1.37-.33-.24.21-.47.41-.71.62,1.13-.36,2.26-.94,3.38-1.55.33-.09.62-.18.84-.27.94-.38,1.93-.92,2.9-1.56.11-.04.22-.09.32-.13-.06,0-.11.04-.17.02,4.39-2.99,8.29-8.18,5.55-11.23-2.15-1.93-4.85-3.61-7.81-3.71-.63-.01-1.31-.12-1.87-.4-2.16-.96-10.92-1.29-15.71-2.1-5.05-.8-10.19-2.09-15.27-2.69-7.87-1.48-15.98-1.62-23.76-3.57-7.19-2.12-14.8-2.7-21.88-5.29-2.2-.31-2.28-4.69-2.98-6.32-.7-3.92-1.1-7.94-.61-11.96-.08-4.86-.28-9.82-1.4-14.56-.84-8.93,5.43-15.93,11.17-21.94.49-.43,1-.59,1.63-.63.94,0,4.77-1.8,8.97-2.47,4.73-.75,9.89-.4,11.07-.71,5.44-.13,10.84.85,16.25,1.42,5.86.83,6.92,1.6,12.54,3.42,6.55,1.8,13.12,3.43,19.46,5.86,7.83,3.39,15.97,7.41,24.86,7.08.41.02,3.63-.35,4.33-.46,3.31-.96,6.34-2.53,6.88-6.26ZM16.57,118.01s0,0,0,0c0,0,0,0,.01,0,0,0-.01,0-.02,0Z"/>
    <path class="cls-1" d="m112.8,137.5c.74-.12,1.48-.26,2.22-.42-.03-.08-.05-.16-.08-.24-.71.23-1.42.44-2.14.66Z"/>
    <path class="cls-1" d="m75.51,136.55c-.09-.05-.24.02-.34-.01.17.09.34.18.51.27-.07-.07-.09-.22-.18-.26Z"/>
    <path class="cls-1" d="m95.34,139.16c.08-.04.29-.25.39-.33-.11.03-.37.05-.44.09-.04.02,0,.26.05.24Z"/>
    <path class="cls-1" d="m100.02,138.68c-.6-.13-1.03-.58-1.62-.74.34.75.85.83,1.62.74Z"/>
    <path class="cls-1" d="m101.23,138.75c.53.02,1.01.04,1.52-.12-.55-.32-.97-.06-1.52.12Z"/>
    <path class="cls-1" d="m112.49,137.89s.27-.06.32-.09c-2.65.07-5.17.48-7.85.47-.2.06-1.88.42-1.7.53.04.03.5-.04.59-.02.09.02.11.07.21.07.1,0,.35-.02.37-.04.02-.02-.27-.02-.29-.05-.03-.03,0-.08-.02-.11,1.1-.1,2.22-.17,3.34-.18.21,0,.4.12.6.12.06,0,.12-.04.14-.07s-.07-.05-.11-.07c1.41-.03,2.78-.1,4.14-.27-.11-.05-.22-.09-.32-.14.16-.05.32-.09.47-.14-.02.07,0,.12.07.18.07.06.38.03.39,0,.02-.05-.36-.14-.35-.19Z"/>
    <path class="cls-1" d="m115.9,137.77c-.09.11.06.32.18.3.12-.02.23.03.29-.11.05-.14-.38-.3-.46-.19Z"/>
    <path class="cls-1" d="m73.67,137.49c.64-.05,1.28-.09,1.92-.13.04-.33-.34-.34-.54-.55-.52.19-1.05.17-1.39.67Z"/>
    <path class="cls-1" d="m85.46,137.69c-.16-.16-.47-.38-.4-.52.08-.14.71.16.77.04.06-.13-.75-.17-.93-.2-.18-.02-.36-.09-.49-.11-.13-.02-.23-.18-.14-.18.46,0,1.1.1,1.6.13-1.3-.26-2.78-.76-3.4-.19.49.3,1.35.37,1.93.47.58.1.49.38.47.49-.01.11-.16.05-.21.12.93.03,1.86.09,2.79.13-.87-.22-1.47-.53-2.01-.18Z"/>
    <path class="cls-1" d="m89.64,137.54c-.87-.08-1.73-.16-2.6-.24.94.44,1.76.5,2.6.24Z"/>
    <path class="cls-1" d="m104.76,139.12c0,.07.19.07.2,0,0-.07-.2-.07-.2,0Z"/>
    <path class="cls-1" d="m124.2,136.42c-1.38-.01-2.57.72-3.95.8.01.04.02.09.04.13-.75.07-1.4.05-2.11-.25.17.17.3.32.35.56,1.3,0,2.56.06,3.84-.26-.16-.06-.33-.1-.5-.13.3-.04.6-.08.9-.12.64.43,1.35.24,2.05.06-.17-.14-.47-.21-.61-.37-.08-.09.05-.3,0-.41Z"/>
    <path class="cls-1" d="m139.33,137c2.15-.59,3.97-1.5,5.73-2.87-1.69.72-3.36,1.49-5.05,2.19-.22.23-.45.45-.68.67Z"/>
    <path class="cls-1" d="m143.19,136.76c.26-.09.45-.23.64-.42-.25.12-.47.19-.64.42Z"/>
    <path class="cls-1" d="m94.94,138.63c.3.19.59.12.93.12-.33-.11-.59-.33-.93-.12Z"/>
    <path class="cls-1" d="m98.19,138.64c-.18-.15-.4-.29-.59-.43.15-.18.35-.17.56-.23-.37-.08-.74-.14-1.11-.21.04.2.1.44.13.63,0,.04-.15.02-.12.04.11.04.42.17.5.22.08.05-.09.06-.05.08.28.18.54.11.85.11-.08-.03-.23-.09-.28-.13-.05-.04.14-.05.11-.07Z"/>
    <path class="cls-1" d="m107.79,138.61c.04.23.27.19.44.15.16-.04.27-.04.43-.06-.29-.1-.58.01-.87-.09Z"/>
    <path class="cls-1" d="m19.23,121.6c-1.05-.53-2.11-1.64-3.34-1.59,1.04.65,2.15,1.26,3.34,1.59Z"/>
    <path class="cls-1" d="m21.02,122.73c1.7.6,3.4,1.22,5.12,1.74.06-.19.13-.23.34-.26-1.82-.47-3.46-1.35-5.3-1.77-.05.1-.11.19-.16.29Z"/>
    <path class="cls-1" d="m27.03,124.62c.39.08.78.14,1.17.21-.3-.26-.7-.35-1.09-.37-.06,0-.04.14-.09.16Z"/>
    <path class="cls-1" d="m32.6,126.54c-1.9-.84-1.64-1.04-3.71-1.43.07.66,1.55.76,2.01,1.18,1.04.19,1.63.93,2.58,1.34.36-.09-1.24-1.01-.88-1.09Z"/>
  </g>
  <path class="cls-1" d="m211.04,143.39c.06.15.3.63.38.35.19-.3.27-.57.16-.92-.32-.15-.37.38-.54.57Z"/>
  <path class="cls-1" d="m211.17,135.47l-.22-1.22c.06.83-.5,1.55-.19,2.28.11-.33.56-.41.95-.27,0-.58.13-1.12-.02-1.77-.19.35-.11.96-.53.98Z"/>
  <path class="cls-1" d="m212.79,150.5c.18-1.08-.12-2.64-.35-3.6-.16,1.23.1,2.49.35,3.6Z"/>
  <polygon class="cls-1" points="212.11 145.71 212.22 145.06 212.07 145.35 212.11 145.71"/>
  <path class="cls-1" d="m212.57,141.86c-.14.44-.61.63-.5,1.24.23.01.42.34.63.52.23-.3.07-1.01.08-1.53l-.22-.22Z"/>
  <path class="cls-1" d="m212.22,130.26l-.15-.34-.59.47.1-3c-.47.87-.02,2.41-.47,3.69l.13.13c.11-.02.16-.24.23-.3l.3.31c.09.45-.59.47-.16.92.66-.17.38-1.27.61-1.89Z"/>
  <path class="cls-1" d="m212.33,138.92c.65-.59.46-1.91.45-2.96-.15.97-.73,1.8-.45,2.96Z"/>
  <path class="cls-1" d="m212.12,128.77v-.1c-.21-.07-.32.26-.34.42.2.07.25-.15.34-.32Z"/>
  <path class="cls-1" d="m212.51,132.72l.52-.09c.18-1.65.4-3.37.38-5.09-.26.67-.23,1.61-.32,2.46-.23.93-.71,1.7-.59,2.72Z"/>
  <path class="cls-1" d="m212.33,126.01l-.29.42.09.09c.22-.04.15-.34.21-.51Z"/>
  <path class="cls-1" d="m213.07,117.56c-.25.15-.35.53-.27.94.06-.17.17-.14.29-.16.17.13.23.33.22.59l-.12.23c-.09-.14-.2-.07-.31-.05l-.06.12c.33-.11.66.46.49.96-.85-.16-.48,1.71-1.22,1.21-.04-.31.23-.62-.03-.88-.06.74-.24,1.51-.19,2.28.37.25.51-.2.86.21.35-.59-.02-1.77.67-2,0-.99.18-1.97.1-3-.14.13-.07.38-.24.51l-.19-.96Z"/>
  <path class="cls-1" d="m212.45,116.16c.56-.41,1.14-.94,1.43-1.72-.39-.4-1.37-.07-1.11-1.06-.4.8-.2,1.87-.32,2.78Z"/>
  <path class="cls-1" d="m213.87,122.07c.17-.5.09-1.85.14-2.01-.08.64-.39,1.22-.14,2.01Z"/>
  <path class="cls-1" d="m213.89,116.16l.13.13.27-.57c-.06-.2-.4.12-.4.44Z"/>
  <path class="cls-1" d="m491.98,174.71c.34-.17.46-.85.28-1.25-.49-.03-.61.9-.28,1.25Z"/>
  <path class="cls-1" d="m492.58,168.6l-.34.17c.33.71-.36,1.87.12,2.57.19-.37.01-1.24.32-1.77-.3-.3-.03-.51-.1-.97Z"/>
  <path class="cls-1" d="m493.74,156.43c-.04.42-.12.86-.21,1.33,0-1.07-.05-2.1-.06-3.36,0-.48.44-.54.11-.94-.04.04-.06.06-.09.11-.21.07-.05-.34-.2-.42-.05,1.56.28,2.34-.09,3.82-.11,1.16-.22,2.57-.33,3.99-.06.43-.1.87-.1,1.3-.09,1.06-.18,2.1-.28,3,.04.02.09.03.13.05,0-.04.01-.08.02-.12.02.21.08.38.24.46.65-.86-.02-1.44.33-2.39.13-1.04.51-1.93.38-3.11-.12.31-.12.72-.35.99.04-.28.08-.57.12-.85.11-.79.15-1.5.17-2.18.11-.53.22-1.06.29-1.58l-.07-.1Z"/>
  <path class="cls-1" d="m494.07,157.4c.08-.31.27-.58.2-.99-.08.31-.27.58-.2.99Z"/>
  <path class="cls-1" d="m496.3,144.05c-.33,2.75-1.3,4.8-1.6,7.5-.16.78-.47,1.41-.4,2.29.55-1.67.65-3.53,1.49-5.02-.02-1.34.9-2.46.5-3.63.69-1.32.67-2.51.95-4.01-.69.91-.29,1.97-.94,2.88Z"/>
  <path class="cls-1" d="m498.05,136.55c0,.36-.43.9-.01,1.03-.42.84-.33,2.03-.86,2.87.64-.18.62-1.52.74-2.15.46-.49-.17-1.43.66-1.37l.29-1.87-.55,1.62-.26-.14Z"/>
</svg>